<mxfile host="app.diagrams.net" agent="Mozilla/5.0 (Windows NT 10.0; Win64; x64) AppleWebKit/537.36 (KHTML, like Gecko) Chrome/132.0.0.0 Safari/537.36 Edg/132.0.0.0" version="26.2.5">
  <diagram name="Page-1" id="OuWf-1nE5Pj0CxuXwZZ5">
    <mxGraphModel dx="1720" dy="488" grid="1" gridSize="12" guides="1" tooltips="1" connect="1" arrows="1" fold="1" page="1" pageScale="1" pageWidth="850" pageHeight="1100" math="0" shadow="0">
      <root>
        <mxCell id="0" />
        <mxCell id="1" parent="0" />
        <mxCell id="hgK_yaW6eGdHaFtF7jmh-1" value="attendance" style="rounded=0;whiteSpace=wrap;html=1;" vertex="1" parent="1">
          <mxGeometry x="204" y="636" width="120" height="60" as="geometry" />
        </mxCell>
        <mxCell id="hgK_yaW6eGdHaFtF7jmh-2" value="attendance_log" style="rounded=0;whiteSpace=wrap;html=1;" vertex="1" parent="1">
          <mxGeometry x="720" y="550" width="120" height="60" as="geometry" />
        </mxCell>
        <mxCell id="hgK_yaW6eGdHaFtF7jmh-3" value="students" style="rounded=0;whiteSpace=wrap;html=1;" vertex="1" parent="1">
          <mxGeometry x="96" y="168" width="120" height="60" as="geometry" />
        </mxCell>
        <mxCell id="hgK_yaW6eGdHaFtF7jmh-4" value="users" style="rounded=0;whiteSpace=wrap;html=1;" vertex="1" parent="1">
          <mxGeometry x="552" y="252" width="120" height="60" as="geometry" />
        </mxCell>
        <mxCell id="hgK_yaW6eGdHaFtF7jmh-5" value="id" style="ellipse;whiteSpace=wrap;html=1;fontStyle=4" vertex="1" parent="1">
          <mxGeometry x="24" y="36" width="120" height="80" as="geometry" />
        </mxCell>
        <mxCell id="hgK_yaW6eGdHaFtF7jmh-6" value="" style="ellipse;whiteSpace=wrap;html=1;" vertex="1" parent="1">
          <mxGeometry x="588" y="348" width="120" height="80" as="geometry" />
        </mxCell>
        <mxCell id="hgK_yaW6eGdHaFtF7jmh-7" value="roll_no" style="ellipse;whiteSpace=wrap;html=1;" vertex="1" parent="1">
          <mxGeometry x="288" y="152" width="120" height="80" as="geometry" />
        </mxCell>
        <mxCell id="hgK_yaW6eGdHaFtF7jmh-8" value="email" style="ellipse;whiteSpace=wrap;html=1;" vertex="1" parent="1">
          <mxGeometry x="300" y="48" width="120" height="80" as="geometry" />
        </mxCell>
        <mxCell id="hgK_yaW6eGdHaFtF7jmh-9" value="name" style="ellipse;whiteSpace=wrap;html=1;" vertex="1" parent="1">
          <mxGeometry x="156" y="36" width="120" height="80" as="geometry" />
        </mxCell>
        <mxCell id="hgK_yaW6eGdHaFtF7jmh-10" value="" style="endArrow=none;html=1;rounded=0;entryX=0.5;entryY=1;entryDx=0;entryDy=0;exitX=0.25;exitY=0;exitDx=0;exitDy=0;" edge="1" parent="1" source="hgK_yaW6eGdHaFtF7jmh-3" target="hgK_yaW6eGdHaFtF7jmh-5">
          <mxGeometry width="50" height="50" relative="1" as="geometry">
            <mxPoint x="108" y="170" as="sourcePoint" />
            <mxPoint x="158" y="120" as="targetPoint" />
          </mxGeometry>
        </mxCell>
        <mxCell id="hgK_yaW6eGdHaFtF7jmh-11" value="" style="endArrow=none;html=1;rounded=0;entryX=0;entryY=1;entryDx=0;entryDy=0;exitX=0.43;exitY=0;exitDx=0;exitDy=0;exitPerimeter=0;" edge="1" parent="1" source="hgK_yaW6eGdHaFtF7jmh-3" target="hgK_yaW6eGdHaFtF7jmh-9">
          <mxGeometry width="50" height="50" relative="1" as="geometry">
            <mxPoint x="120" y="182" as="sourcePoint" />
            <mxPoint x="170" y="132" as="targetPoint" />
          </mxGeometry>
        </mxCell>
        <mxCell id="hgK_yaW6eGdHaFtF7jmh-12" value="" style="endArrow=none;html=1;rounded=0;entryX=0;entryY=0.5;entryDx=0;entryDy=0;exitX=0.5;exitY=0;exitDx=0;exitDy=0;" edge="1" parent="1" source="hgK_yaW6eGdHaFtF7jmh-3" target="hgK_yaW6eGdHaFtF7jmh-8">
          <mxGeometry width="50" height="50" relative="1" as="geometry">
            <mxPoint x="132" y="194" as="sourcePoint" />
            <mxPoint x="182" y="144" as="targetPoint" />
          </mxGeometry>
        </mxCell>
        <mxCell id="hgK_yaW6eGdHaFtF7jmh-13" value="" style="endArrow=none;html=1;rounded=0;entryX=0;entryY=0;entryDx=0;entryDy=0;exitX=1;exitY=0.25;exitDx=0;exitDy=0;" edge="1" parent="1" source="hgK_yaW6eGdHaFtF7jmh-3" target="hgK_yaW6eGdHaFtF7jmh-7">
          <mxGeometry width="50" height="50" relative="1" as="geometry">
            <mxPoint x="144" y="206" as="sourcePoint" />
            <mxPoint x="194" y="156" as="targetPoint" />
          </mxGeometry>
        </mxCell>
        <mxCell id="hgK_yaW6eGdHaFtF7jmh-14" value="role" style="ellipse;whiteSpace=wrap;html=1;" vertex="1" parent="1">
          <mxGeometry x="840" y="168" width="120" height="80" as="geometry" />
        </mxCell>
        <mxCell id="hgK_yaW6eGdHaFtF7jmh-15" value="password" style="ellipse;whiteSpace=wrap;html=1;" vertex="1" parent="1">
          <mxGeometry x="828" y="72" width="120" height="80" as="geometry" />
        </mxCell>
        <mxCell id="hgK_yaW6eGdHaFtF7jmh-16" value="email" style="ellipse;whiteSpace=wrap;html=1;" vertex="1" parent="1">
          <mxGeometry x="696" y="60" width="120" height="80" as="geometry" />
        </mxCell>
        <mxCell id="hgK_yaW6eGdHaFtF7jmh-17" value="usename" style="ellipse;whiteSpace=wrap;html=1;" vertex="1" parent="1">
          <mxGeometry x="552" y="36" width="120" height="80" as="geometry" />
        </mxCell>
        <mxCell id="hgK_yaW6eGdHaFtF7jmh-18" value="id" style="ellipse;whiteSpace=wrap;html=1;fontStyle=4" vertex="1" parent="1">
          <mxGeometry x="432" y="84" width="120" height="80" as="geometry" />
        </mxCell>
        <mxCell id="hgK_yaW6eGdHaFtF7jmh-19" value="" style="endArrow=none;html=1;rounded=0;exitX=0.5;exitY=1;exitDx=0;exitDy=0;entryX=0.5;entryY=0;entryDx=0;entryDy=0;" edge="1" parent="1" source="hgK_yaW6eGdHaFtF7jmh-18" target="hgK_yaW6eGdHaFtF7jmh-4">
          <mxGeometry width="50" height="50" relative="1" as="geometry">
            <mxPoint x="586" y="214" as="sourcePoint" />
            <mxPoint x="636" y="164" as="targetPoint" />
          </mxGeometry>
        </mxCell>
        <mxCell id="hgK_yaW6eGdHaFtF7jmh-20" value="" style="endArrow=none;html=1;rounded=0;entryX=0.5;entryY=1;entryDx=0;entryDy=0;exitX=0.5;exitY=0;exitDx=0;exitDy=0;" edge="1" parent="1" source="hgK_yaW6eGdHaFtF7jmh-4" target="hgK_yaW6eGdHaFtF7jmh-17">
          <mxGeometry width="50" height="50" relative="1" as="geometry">
            <mxPoint x="586" y="190" as="sourcePoint" />
            <mxPoint x="636" y="140" as="targetPoint" />
          </mxGeometry>
        </mxCell>
        <mxCell id="hgK_yaW6eGdHaFtF7jmh-21" value="" style="endArrow=none;html=1;rounded=0;entryX=0.5;entryY=1;entryDx=0;entryDy=0;exitX=0.5;exitY=0;exitDx=0;exitDy=0;" edge="1" parent="1" source="hgK_yaW6eGdHaFtF7jmh-4" target="hgK_yaW6eGdHaFtF7jmh-16">
          <mxGeometry width="50" height="50" relative="1" as="geometry">
            <mxPoint x="610" y="238" as="sourcePoint" />
            <mxPoint x="660" y="188" as="targetPoint" />
          </mxGeometry>
        </mxCell>
        <mxCell id="hgK_yaW6eGdHaFtF7jmh-22" value="" style="endArrow=none;html=1;rounded=0;entryX=0;entryY=1;entryDx=0;entryDy=0;exitX=0.5;exitY=0;exitDx=0;exitDy=0;" edge="1" parent="1" source="hgK_yaW6eGdHaFtF7jmh-4" target="hgK_yaW6eGdHaFtF7jmh-15">
          <mxGeometry width="50" height="50" relative="1" as="geometry">
            <mxPoint x="622" y="250" as="sourcePoint" />
            <mxPoint x="672" y="200" as="targetPoint" />
          </mxGeometry>
        </mxCell>
        <mxCell id="hgK_yaW6eGdHaFtF7jmh-23" value="" style="endArrow=none;html=1;rounded=0;entryX=0;entryY=0.5;entryDx=0;entryDy=0;exitX=0.75;exitY=0;exitDx=0;exitDy=0;" edge="1" parent="1" source="hgK_yaW6eGdHaFtF7jmh-4" target="hgK_yaW6eGdHaFtF7jmh-14">
          <mxGeometry width="50" height="50" relative="1" as="geometry">
            <mxPoint x="634" y="262" as="sourcePoint" />
            <mxPoint x="684" y="212" as="targetPoint" />
          </mxGeometry>
        </mxCell>
        <mxCell id="hgK_yaW6eGdHaFtF7jmh-24" value="user_id" style="ellipse;whiteSpace=wrap;textShadow=1;html=1;" vertex="1" parent="1">
          <mxGeometry x="516" y="492" width="120" height="80" as="geometry" />
        </mxCell>
        <mxCell id="hgK_yaW6eGdHaFtF7jmh-25" value="date" style="ellipse;whiteSpace=wrap;html=1;" vertex="1" parent="1">
          <mxGeometry x="204" y="450" width="120" height="80" as="geometry" />
        </mxCell>
        <mxCell id="hgK_yaW6eGdHaFtF7jmh-26" value="status" style="ellipse;whiteSpace=wrap;html=1;" vertex="1" parent="1">
          <mxGeometry x="372" y="456" width="120" height="80" as="geometry" />
        </mxCell>
        <mxCell id="hgK_yaW6eGdHaFtF7jmh-27" value="student_id" style="ellipse;whiteSpace=wrap;html=1;fontStyle=4;fillStyle=auto;horizontal=1;" vertex="1" parent="1">
          <mxGeometry x="24" y="450" width="120" height="80" as="geometry" />
        </mxCell>
        <mxCell id="hgK_yaW6eGdHaFtF7jmh-28" value="id" style="ellipse;whiteSpace=wrap;html=1;fontStyle=4" vertex="1" parent="1">
          <mxGeometry x="-120" y="492" width="120" height="80" as="geometry" />
        </mxCell>
      </root>
    </mxGraphModel>
  </diagram>
</mxfile>
